<svg xmlns="http://www.w3.org/2000/svg" height="800" width="1200" viewBox="-71.95425 -47.7205 623.6035 286.323"><path d="M415.252 189.528c-.223-.223-93.629-.408-207.568-.411L.52 189.11l.255-94.236L1.03.64l67.5.266c142.078.56 408.883 3.044 410.137 3.819.492.304.682 20.788.433 46.729-.244 25.402-.472 67.008-.507 92.456l-.063 46.27-31.437-.123c-17.29-.068-31.619-.306-31.842-.529zm54.279-92.167V12.422l-71.25-.644c-39.188-.354-94.875-.866-123.75-1.137-28.875-.27-100.313-.765-158.75-1.098L9.53 8.936v85.602c0 47.081.337 85.607.75 85.613.412.006 93.657.25 207.21.544 113.553.293 206.554.627 206.67.741.114.115 10.37.357 22.789.537l22.58.327zM24.538 172.39c.004-.413 2.937-5.926 6.52-12.25 3.58-6.326 7.473-13.372 8.648-15.66 1.873-3.648 2.616-4.206 6.039-4.532 2.146-.205 4.277.092 4.734.66.822 1.021 6.6 11.263 14.263 25.281l3.963 7.25H57.72l-5.345-9.5c-2.94-5.224-5.661-9.5-6.049-9.5-.387 0-3.087 4.275-6 9.5l-5.295 9.498-5.25.001c-2.888 0-5.247-.336-5.243-.749zm59.134-75.168c.198-41.755.628-76.185.954-76.511.7-.7 37.893-.917 38.586-.224.26.26-1.568 6.106-4.064 12.99-6.004 16.564-8.66 27.287-9.32 37.642-.553 8.648.837 17.373 6.69 42.02 4.566 19.22 3.486 35.362-3.265 48.803-6.11 12.167-4.546 11.197-18.073 11.197H83.31zm47.482 6.917l.7-69-4.412-.047-4.411-.048 7.5-6.951c4.125-3.823 7.766-6.951 8.091-6.952.326-.001 3.476 3.03 7 6.734l6.409 6.735-3.5.515-3.5.514-.257 68.75-.257 68.75h-14.063zm20.713 67.25c.313-.962 2.169-6.188 4.123-11.612 4.936-13.698 6.235-25.16 4.704-41.498-.652-6.952-1.634-14.265-2.183-16.25-2.849-10.312-5.162-23.421-5.625-31.89-.443-8.077-.134-10.994 2.062-19.476 1.42-5.487 4.849-14.616 7.618-20.286l5.035-10.31 9.715.287 9.715.285.256 76.25.256 76.25H169.42c-16.81 0-18.081-.126-17.553-1.75zm242.414-13.98l-10.75-.337-.029-19.716c-.015-10.844-.003-32.62.028-48.39.03-15.771-.294-28.891-.723-29.156-.428-.265-11.466-.812-24.527-1.215l-23.75-.735V35.125l60.25.258 60.25.257.283 11.75.281 11.75H409.55l-.26 49.25c-.255 48.477-.29 49.251-2.26 49.305-1.1.03-6.837-.098-12.75-.284zm-169.019-1.307c-10.91-1.835-20.22-9.098-23.42-18.27-1.627-4.665-1.811-9.107-1.811-43.693 0-37.281.068-38.647 2.149-43.149 2.975-6.435 9.101-12.237 15.49-14.668 5.117-1.947 7.576-2.044 53.997-2.129 43.7-.08 48.699.074 49.25 1.511.338.88.614 6.287.614 12.017V58.14h-44.032c-47.779 0-48.524.078-52.8 5.514-2.101 2.671-2.168 3.58-2.168 29.472 0 16.679.409 27.89 1.088 29.838.599 1.718 2.511 3.982 4.25 5.031 2.873 1.735 6.155 1.97 35.912 2.575l32.75.666V118.14h-19V93.827l15.75.654c8.662.359 18.562.654 22 .656l6.25.003v62l-45.75-.117c-25.163-.065-47.896-.48-50.519-.92zM25.431 132.736c-.055-.328-.1-1.72-.1-3.096 0-5.768-.919-5.427 15.437-5.723 13.589-.247 15.274-.466 15.574-2.027.305-1.588-.78-1.75-11.787-1.75-16.8 0-20.024-1.849-20.024-11.482 0-3.704.521-5.096 2.646-7.065 2.624-2.432 2.811-2.453 22.5-2.453H69.53v8.954l-17.75.273c-21.784.336-23.643 2.05-3.008 2.773 15.836.556 18.148 1.297 20.33 6.519 2.015 4.823.85 9.057-3.378 12.284-3.496 2.668-3.737 2.701-21.865 3.043-10.08.19-18.374.077-18.43-.25zm.326-58.346l.274-16.75 3.2-.31c2.764-.267 3.616.264 6.24 3.888 1.673 2.308 4.642 7.06 6.6 10.56 1.956 3.5 3.873 6.348 4.259 6.33.385-.017 3.397-4.517 6.692-10l5.99-9.968h11.74l-.36 16.498-.361 16.497-4.708.003-4.708.003-.292-7.596-.292-7.596-4.5 7.603-4.5 7.602-4.463-.256c-4.239-.244-4.616-.52-7.5-5.49-1.67-2.877-3.375-5.24-3.787-5.25-.413-.01-.75 2.458-.75 5.483v5.5h-9.048zm18.488-24.869c-.393-.392-.714-7.839-.714-16.547V17.14h9.049l-.274 16.25-.275 16.25-3.536.298c-1.945.164-3.857-.024-4.25-.417z" fill="#d40000"/><path d="M83.633 149.452c.04-12.761.291-46.686.556-75.388.418-45.223.631-52.28 1.596-52.89 1.092-.69 37.124-1.062 37.124-.383 0 .189-2.315 7.289-5.145 15.778-5.936 17.81-7.496 24.51-8.029 34.481-.467 8.746.42 15.237 4.673 34.196 5.237 23.35 5.756 32.904 2.487 45.762-1.667 6.558-7.61 18.996-9.813 20.539-1.228.86-4.029 1.107-12.552 1.107H83.558zm68.849 22.829c-.205-.205 1.232-5.133 3.194-10.951 4.251-12.61 5.841-21.126 5.841-31.284 0-9.856-1.711-24.18-4.048-33.88-6.889-28.601-5.627-41.692 6.54-67.838l3.76-8.083 9.172.397c5.045.217 9.282.514 9.417.658.134.144.37 34.258.526 75.808l.282 75.546H170.01c-9.435 0-17.323-.167-17.528-.373z" stroke="#000" stroke-width="2.287"/><path d="M209.963 189.174l-208.82-.188V1.144l36.938.008c75.878.015 351.903 2.285 413.927 3.404l26.544.479v184.697l-29.885-.185c-16.436-.102-123.853-.27-238.704-.373zm259.679-91.797V12.448L450.895 12c-10.311-.247-63.185-.798-117.496-1.224-119.088-.933-297.973-2.19-313.16-2.2L9.262 8.569l.21 85.198c.115 46.86.48 85.616.81 86.126.476.736 25.224.95 119.166 1.036 99.787.09 235.94.613 319.96 1.23l20.233.147z" stroke="#000" stroke-width="2.287"/><path d="M379.803 180.261c-18.989-.112-109.421-.45-200.962-.75-91.54-.3-166.657-.766-166.925-1.034-.269-.269-.684-38.274-.922-84.456l-.434-83.968 13.668.003c14.868.003 157.283 1.03 305.087 2.202 51.25.406 103.454.956 116.011 1.222l22.831.484v166.857l-26.914-.178c-14.803-.098-42.451-.27-61.44-.382zm-273.949-6.858c3.043-.845 5.883-5.003 9.644-14.113 3.4-8.239 4.627-14.763 4.607-24.502-.017-8.832-1.056-15.37-6.19-38.98-2.097-9.636-2.421-12.537-2.41-21.531.014-12.183.684-15.386 7.988-38.186 3.83-11.961 4.674-15.393 3.986-16.222-.722-.87-4.082-1.007-19.344-.793-16.624.232-18.566.39-19.43 1.57-1.364 1.867-1.795 18.57-2.354 91.311l-.479 62.182 10.68-.004c5.875-.002 11.86-.332 13.302-.732zm82.6-32.86c-.113-18.479-.299-52.885-.414-76.46-.14-28.527-.469-43.122-.985-43.638-.427-.427-5.165-.985-10.53-1.242l-9.754-.467-3.389 7.301c-8.934 19.25-11.095 27.51-11.063 42.3.021 10.109.307 12.51 3.09 25.987 6.34 30.695 6.166 43.14-.923 65.776-3.747 11.966-3.912 13.045-2.064 13.527.714.187 9.16.379 18.767.426l17.468.086zM37.241 169.87a1206.5 1206.5 0 015.414-9.357l3.407-5.83 1.485 1.981c.817 1.09 3.348 5.218 5.624 9.172l4.14 7.19 5.79.218c5.309.2 5.748.108 5.284-1.114-.49-1.288-14.941-27.48-16.838-30.516-1.177-1.886-4.173-2.51-7.556-1.577-2.456.678-3.14 1.674-11.24 16.343-4.743 8.592-8.43 15.936-8.193 16.32.237.383 2.736.697 5.553.697h5.123zm107.94-65.065V36.213l1.671-.448c.919-.246 2.423-.452 3.341-.457.92-.006 1.67-.33 1.67-.72 0-.39-2.766-3.61-6.148-7.155-4.852-5.087-6.456-6.345-7.61-5.97-.804.263-4.636 3.466-8.515 7.12l-7.054 6.643 4.712.036 4.712.035-.43 7.61c-.236 4.186-.638 35.259-.893 69.05l-.465 61.44h15.01zm176.709 21.556V94.917l-20.604-.527c-11.332-.29-21.355-.71-22.274-.934l-1.67-.407v25.405h18.561v12.492l-17.634-.36c-9.698-.197-24.336-.627-32.527-.956-16.144-.648-18.197-1.142-20.82-5.013-1.312-1.935-1.424-3.99-1.617-29.55-.231-30.705-.172-31.114 4.921-34.055 3.653-2.11 14.072-2.596 56.78-2.65l36.99-.048-.239-11.102c-.169-7.844-.522-11.385-1.203-12.065-1.223-1.221-81.286-1.81-93.408-.686-9.601.89-14.053 2.84-19.41 8.505-6.153 6.505-7.031 8.895-7.69 20.916-.734 13.417-.734 43.288.001 59.398.473 10.349.856 13.253 2.13 16.124 1.894 4.267 7.534 10.44 11.85 12.97 7.153 4.192 7.16 4.192 48.836 4.677 21.235.246 43.202.517 48.817.601l10.209.153zm86.639 30.516c.33-.51.768-22.478.972-48.818l.371-47.889 22.904-.371 22.903-.371-.106-11.852c-.06-6.519-.175-11.902-.259-11.964-.083-.061-27.298-.307-60.477-.545l-60.326-.432v23.468l13.922.487c7.657.268 18.464.694 24.017.946l10.096.46.482 12.709c.265 6.99.483 28.774.484 48.41.001 19.635.225 35.923.497 36.195.273.272 5.766.495 12.207.495 8.555 0 11.874-.25 12.313-.928zM64.516 131.154c6.615-4.113 7.64-12.39 2.148-17.36-1.867-1.69-7.655-2.591-20.46-3.187-5.64-.262-10.04-.692-9.778-.955.262-.264 7.884-.646 16.936-.85l16.46-.371.221-4.64.221-4.641H50.516c-21.85 0-23.051.218-25.32 4.605-1.722 3.33-1.037 10.471 1.237 12.89 2.533 2.698 5.741 3.397 18.005 3.923 6.7.288 11.277.786 11.277 1.227 0 1.13-5.623 1.74-16.706 1.812-12.682.084-13.652.493-13.962 5.892l-.227 3.956 18.417-.262c17.915-.254 18.496-.31 21.279-2.04zM34.629 87.827c.04-2.144.291-4.67.557-5.615.44-1.563.704-1.354 2.942 2.34 3.294 5.435 4.271 6.157 9.049 6.685l4.083.452 4.084-7.09 4.083-7.091.181 3.21c.1 1.766.374 4.965.61 7.11l.43 3.897h9.321l.48-7.239c.263-3.981.48-11.68.483-17.107l.004-9.868-6.04.216-6.04.216-5.522 8.91c-3.037 4.9-5.929 9.328-6.426 9.84-.718.739-1.891-.72-5.677-7.053-5.725-9.579-8.662-12.815-11.614-12.8-1.164.007-2.487.257-2.94.557-.85.563-1.991 33.122-1.189 33.924.223.222 2.353.404 4.736.404h4.33zm17.745-46.474c0-4.837.218-12.355.484-16.706l.484-7.911h-9.878v16.21c0 8.916.223 16.434.495 16.706.273.272 2.277.495 4.455.495h3.96z" fill="#fff"/></svg>